# Rhino

g object_1
v -0.4930039942264557 -0.4543175101280212 3.941704273223877
v -0.4930039942264557 0.4543182253837585 3.941704273223877
v -0.4930039942264557 -0.4543175101280212 2.991676330566406
v -0.4930039942264557 0.4543182253837585 2.991676330566406
v -0.4930039942264557 -0.4543175101280212 2.991676330566406
v -0.4930039942264557 0.4543182253837585 2.991676330566406
v 0.4930042326450348 -0.4543175101280212 2.991676330566406
v 0.4930042326450348 0.4543182253837585 2.991676330566406
v 0.4930042326450348 -0.4543175101280212 2.991676330566406
v 0.4930042326450348 0.4543182253837585 2.991676330566406
v 0.4930042326450348 -0.4543175101280212 3.941704273223877
v 0.4930042326450348 0.4543182253837585 3.941704273223877
v 0.4930042326450348 -0.4543175101280212 3.941704273223877
v 0.4930042326450348 0.4543182253837585 3.941704273223877
v -0.4930039942264557 -0.4543175101280212 3.941704273223877
v -0.4930039942264557 0.4543182253837585 3.941704273223877
v -0.4930039942264557 -0.4543175101280212 3.941704273223877
v 0.4930042326450348 -0.4543175101280212 3.941704273223877
v -0.4930039942264557 -0.4543175101280212 2.991676330566406
v 0.4930042326450348 -0.4543175101280212 2.991676330566406
v -0.4930039942264557 0.4543182253837585 3.941704273223877
v 0.4930042326450348 0.4543182253837585 3.941704273223877
v -0.4930039942264557 0.4543182253837585 2.991676330566406
v 0.4930042326450348 0.4543182253837585 2.991676330566406
vt 0.6708222627639771 0.4794244170188904
vt 0.6708222627639771 0.7942600250244141
vt 0.99853515625 0.4794244170188904
vt 0.99853515625 0.7942600250244141
vt 0.3291777074337006 0.6440132856369019
vt 0.3291777074337006 0.9573839902877808
vt 0.6693574190139771 0.6440132856369019
vt 0.6693574190139771 0.9573839902877808
vt 0.6708222627639771 0
vt 0.6708222627639771 0.3148355782032013
vt 0.99853515625 0
vt 0.99853515625 0.3148355782032013
vt 0.3291777074337006 0.3291777074337006
vt 0.3291777074337006 0.6425484418869019
vt 0.6693574190139771 0.3291777074337006
vt 0.6693574190139771 0.6425484418869019
vt 0 0.3291777074337006
vt 0 0.6708222627639771
vt 0.3277128636837006 0.3291777074337006
vt 0.3277128636837006 0.6708222627639771
vt 0.3416445851325989 0
vt 0 0
vt 0.3416445851325989 0.3277128636837006
vt 0 0.3277128636837006
vn -1 0 0
vn -1 0 0
vn -1 0 0
vn -1 0 0
vn 0 0 -1
vn 0 0 -1
vn 0 0 -1
vn 0 0 -1
vn 1 0 0
vn 1 0 0
vn 1 0 0
vn 1 0 0
vn 0 0 1
vn 0 0 1
vn 0 0 1
vn 0 0 1
vn 0 -1 0
vn 0 -1 0
vn 0 -1 0
vn 0 -1 0
vn 0 1 0
vn 0 1 0
vn 0 1 0
vn 0 1 0
f 2/2/2 4/4/4 3/3/3 1/1/1
f 6/6/6 8/8/8 7/7/7 5/5/5
f 10/10/10 12/12/12 11/11/11 9/9/9
f 14/14/14 16/16/16 15/15/15 13/13/13
f 18/18/18 17/17/17 19/19/19 20/20/20
f 22/22/22 24/24/24 23/23/23 21/21/21
