# Rhino

g object_1
v -0.2499999851 -0.2499998957 0.4930041134357452
v -1.47456376e-07 -0.2499999106 2.119886637
v -0.2499996424 -0.2499999404 2.991676330566405
v 0.2499999106 -0.2499998957 0.4930041134357452
v 0.2500002682 -0.2499999404 2.991676330566405
v -0.2499995977 0.25 2.991676330566405
v -1.097123459e-07 0.2500000298 2.119886637
v 0.250000298 0.25 2.991676330566405
v -0.2499999404 0.2500000894 0.4930041134357452
v 0.2499999553 0.2500000596 0.4930041134357452
v -0.2499999851 -0.2499998957 0.4930041134357452
v -0.2499996424 -0.2499999404 2.991676330566405
v 0.2499999106 -0.2499998957 0.4930041134357452
v 0.2500002682 -0.2499999404 2.991676330566405
v -0.2499995977 0.25 2.991676330566405
v 0.250000298 0.25 2.991676330566405
v -0.2499999404 0.2500000894 0.4930041134357452
v 0.2499999553 0.2500000596 0.4930041134357452
v 0.2499999106 -0.2499999106 0.4930041134357452
v -0.2499996424 -0.2499999404 2.991676330566405
v -0.2499999851 -0.2499999106 0.4930041134357452
v 0.2500002682 -0.2499999404 2.991676330566405
v -0.2499995977 0.25 2.991676330566405
v 0.250000298 0.25 2.991676330566405
v 0.2499999553 0.2500000298 0.4930041134357452
v -0.2499999404 0.2500000596 0.4930041134357452
vn 2.84082783963413e-08 -1 -1.352406453491994e-08
vn 3.819167204710539e-14 -1 -1.978004249281185e-08
vn 2.981493452125505e-08 -1 -2.563265155686167e-08
vn -2.840820201299721e-08 -1 -1.352405654131417e-08
vn -2.981485280884044e-08 -1 -2.563264445143432e-08
vn -2.977597335362958e-11 1 3.417401472916026e-08
vn 2.529725051658716e-08 1 3.032252138268632e-08
vn 1.80109580583121e-08 1 2.901760964846289e-08
vn 3.258354297486221e-08 1 3.162743666962342e-08
vn 4.781096407668883e-08 1 2.566426537953248e-08
vn -1 8.940000384427549e-08 1.371528384197518e-07
vn -1 8.940000384427549e-08 1.371528526306065e-07
vn 1 -7.450000794051448e-08 -1.40134432058403e-07
vn 1 -5.960000848403979e-08 -1.431160114861996e-07
vn -1 8.940001094970285e-08 1.371528526306065e-07
vn 1 -7.450000794051448e-08 -1.40134432058403e-07
vn -1 8.940000384427549e-08 1.371528526306065e-07
vn 1 -8.940001094970285e-08 -1.371528526306065e-07
vn 0 0 -1
vn 0 0 1
vn 0 0 -1
vn 0 0 1
vn 0 0 1
vn 0 0 1
vn 0 0 -1
vn 0 0 -1
f 3//3 1//1 2//2
f 2//2 4//4 5//5
f 3//3 2//2 5//5
f 1//1 4//4 2//2
f 9//9 7//7 10//10
f 6//6 8//8 7//7
f 7//7 8//8 10//10
f 6//6 7//7 9//9
f 17//17 12//12 15//15
f 17//17 11//11 12//12
f 16//16 13//13 18//18
f 16//16 14//14 13//13
f 23//23 22//22 24//24
f 23//23 20//20 22//22
f 25//25 19//19 21//21
f 25//25 21//21 26//26
